<svg version="1.1" xmlns="http://www.w3.org/2000/svg" xmlns:xlink="http://www.w3.org/1999/xlink" width="16" height="16" viewBox="0,0,256,256"><g fill="#ffffff" fill-rule="nonzero" stroke="none" stroke-width="1" stroke-linecap="butt" stroke-linejoin="miter" stroke-miterlimit="10" stroke-dasharray="" stroke-dashoffset="0" font-family="none" font-weight="none" font-size="none" text-anchor="none" style="mix-blend-mode: normal"><g transform="translate(-0.00859,0.00458) scale(16,16)"><path d="M12.854,0.146c-0.19525,-0.19519 -0.51175,-0.19519 -0.707,0l-1.647,1.647l3.707,3.707l1.647,-1.646c0.09404,-0.0938 0.14689,-0.22117 0.14689,-0.354c0,-0.13283 -0.05285,-0.2602 -0.14689,-0.354zM13.5,6.207l-3.707,-3.707l-6.5,6.5h0.207c0.27614,0 0.5,0.22386 0.5,0.5v0.5h0.5c0.27614,0 0.5,0.22386 0.5,0.5v0.5h0.5c0.27614,0 0.5,0.22386 0.5,0.5v0.5h0.5c0.27614,0 0.5,0.22386 0.5,0.5v0.207zM6.032,13.675c-0.02104,-0.05595 -0.03188,-0.11522 -0.032,-0.175v-0.5h-0.5c-0.27614,0 -0.5,-0.22386 -0.5,-0.5v-0.5h-0.5c-0.27614,0 -0.5,-0.22386 -0.5,-0.5v-0.5h-0.5c-0.27614,0 -0.5,-0.22386 -0.5,-0.5v-0.5h-0.5c-0.05978,-0.0001 -0.11905,-0.01094 -0.175,-0.032l-0.179,0.178c-0.04765,0.04799 -0.08507,0.10514 -0.11,0.168l-2,5c-0.07434,0.18573 -0.03082,0.3979 0.11064,0.53936c0.14146,0.14146 0.35363,0.18498 0.53936,0.11064l5,-2c0.06286,-0.02493 0.12001,-0.06235 0.168,-0.11l0.178,-0.178z"></path></g></g></svg>