<svg version="1.1" xmlns="http://www.w3.org/2000/svg" xmlns:xlink="http://www.w3.org/1999/xlink" width="16" height="16" viewBox="0,0,256,256"><g fill="#ffffff" fill-rule="evenodd" stroke="none" stroke-width="1" stroke-linecap="butt" stroke-linejoin="miter" stroke-miterlimit="10" stroke-dasharray="" stroke-dashoffset="0" font-family="none" font-weight="none" font-size="none" text-anchor="none" style="mix-blend-mode: normal"><g transform="translate(0.00353,-0.00738) scale(16,16)"><path d="M1.885,0.511c0.35395,-0.35341 0.84253,-0.53795 1.34174,-0.50678c0.49921,0.03118 0.96104,0.27507 1.26826,0.66978l1.795,2.306c0.329,0.423 0.445,0.974 0.315,1.494l-0.547,2.19c-0.05752,0.23072 0.01002,0.47471 0.178,0.643l2.457,2.457c0.1685,0.16833 0.41297,0.2359 0.644,0.178l2.189,-0.547c0.51995,-0.13 1.0708,-0.01386 1.494,0.315l2.306,1.794c0.829,0.645 0.905,1.87 0.163,2.611l-1.034,1.034c-0.74,0.74 -1.846,1.065 -2.877,0.702c-2.63882,-0.92847 -5.03473,-2.43916 -7.01,-4.42c-1.98071,-1.97498 -3.49139,-4.37054 -4.42,-7.009c-0.362,-1.03 -0.037,-2.137 0.703,-2.877z"></path></g></g></svg>